<svg xmlns="http://www.w3.org/2000/svg" width="122.17" height="122.17" viewBox="0 0 122.17 122.17"><defs><style>.cls-1{fill:#231f20;}.cls-2{fill:none;stroke:#231f20;stroke-miterlimit:10;stroke-width:5px;}</style></defs><g id="Layer_2" data-name="Layer 2"><g id="Layer_1-2" data-name="Layer 1"><path class="cls-1" d="M3.11,20.65C19.47,26,32.45,38.1,46.89,47c2.74,1.69,5.26-2.63,2.52-4.32-14.87-9.17-28.12-21.31-45-26.86-3.06-1-4.38,3.82-1.33,4.82Z"/><path class="cls-1" d="M46.54,4.35A249.43,249.43,0,0,1,44.6,53.51a259.79,259.79,0,0,1-9.82,42.74q-3.27,10.23-7.35,20.16l4.18-1.1A260,260,0,0,0,7,90v3.53A381.29,381.29,0,0,1,51.36,62.09,394.92,394.92,0,0,1,96,38.8q12-5.32,24.32-9.85c2.22-.81,2.53-4.13,0-4.82A170.49,170.49,0,0,1,96.56,15.8,55.83,55.83,0,0,1,77.47,1.87,2.52,2.52,0,0,0,73.29,3a248.77,248.77,0,0,0-8.43,42.67,243.46,243.46,0,0,0-.32,49.4c.72,7.55,1.78,15.08,3.17,22.53.47,2.53,4.17,2.23,4.82,0q7.48-25.69,15-51.4l-4.18,1.11Q100,88.86,116.69,110.45a2.5,2.5,0,0,0,3.53,0,2.55,2.55,0,0,0,0-3.53L86.85,63.75c-1.21-1.56-3.71-.52-4.18,1.1q-7.48,25.71-15,51.4h4.82A241.51,241.51,0,0,1,72.86,26Q75,15,78.11,4.31l-4.18,1.1A60.37,60.37,0,0,0,89,17.61a111,111,0,0,0,17.68,7.52q6.06,2.13,12.25,3.82V24.13A415,415,0,0,0,74.18,43.65,388.51,388.51,0,0,0,28.75,70.84Q15.73,79.9,3.46,90a2.51,2.51,0,0,0,0,3.53,260,260,0,0,1,24.61,25.29c1.36,1.6,3.54.47,4.18-1.1a268.47,268.47,0,0,0,12.39-38,257.44,257.44,0,0,0,7-46.94,251.82,251.82,0,0,0-.06-28.42c-.19-3.2-5.19-3.22-5,0Z"/><rect class="cls-2" x="2.5" y="2.5" width="117.17" height="117.17"/></g></g></svg>