<svg xmlns="http://www.w3.org/2000/svg" width="120.67" height="118.48" viewBox="0 0 120.67 118.48"><defs><style>.cls-1{fill:#231f20;}</style></defs><g id="Layer_2" data-name="Layer 2"><g id="Layer_1-2" data-name="Layer 1"><path class="cls-1" d="M1.73,19.52C18.09,24.91,31.06,37,45.51,45.87c2.74,1.7,5.26-2.63,2.52-4.32-14.87-9.17-28.12-21.3-45-26.86-3.06-1-4.38,3.82-1.33,4.83Z"/><path class="cls-1" d="M45.16,3.22a249.33,249.33,0,0,1-1.94,49.15A259.67,259.67,0,0,1,33.4,95.12q-3.27,10.22-7.35,20.16l4.18-1.11A261.17,261.17,0,0,0,5.62,88.88v3.54A380.1,380.1,0,0,1,50,61,393.29,393.29,0,0,1,94.57,37.67q12-5.33,24.32-9.85c2.22-.82,2.53-4.13,0-4.82a170.54,170.54,0,0,1-23.71-8.34A55.8,55.8,0,0,1,76.09.74a2.52,2.52,0,0,0-4.18,1.1,249.15,249.15,0,0,0-8.43,42.67,243.55,243.55,0,0,0-.32,49.41q1.08,11.33,3.17,22.53c.47,2.53,4.17,2.23,4.82,0q7.48-25.71,15-51.4l-4.18,1.1,33.38,43.17a2.5,2.5,0,0,0,3.53,0,2.56,2.56,0,0,0,0-3.54L85.47,62.62c-1.21-1.56-3.71-.53-4.18,1.1q-7.49,25.69-15,51.4h4.82a241.56,241.56,0,0,1,.33-90.31q2.13-10.93,5.25-21.64L72.55,4.28a60.37,60.37,0,0,0,15.08,12.2A111.85,111.85,0,0,0,105.31,24q6.06,2.15,12.25,3.83V23A412.14,412.14,0,0,0,72.8,42.52,388.44,388.44,0,0,0,27.37,69.7q-13,9.08-25.29,19.18a2.53,2.53,0,0,0,0,3.54,258.87,258.87,0,0,1,24.61,25.29c1.36,1.59,3.54.46,4.18-1.1a269,269,0,0,0,12.39-38,257.34,257.34,0,0,0,7-46.93,251.82,251.82,0,0,0-.06-28.42C50,0,45,0,45.16,3.22Z"/></g></g></svg>