<?xml version="1.0" encoding="utf-8"?>
<!-- Generator: Adobe Illustrator 26.0.2, SVG Export Plug-In . SVG Version: 6.00 Build 0)  -->
<svg version="1.1" id="Layer_1" xmlns="http://www.w3.org/2000/svg" xmlns:xlink="http://www.w3.org/1999/xlink" x="0px" y="0px"
	 viewBox="0 0 122.2 122.2" style="enable-background:new 0 0 122.2 122.2;" xml:space="preserve">
<style type="text/css">
	.st0{fill:#231F20;}
	.st1{fill:none;stroke:#231F20;stroke-width:5;stroke-miterlimit:10;}
</style>
<g id="Layer_2_00000007429762129210412580000017101384040067817374_">
	<g id="Layer_1-2">
		<path class="st0" d="M10.8,25.8C25,30.5,36.3,41,48.8,48.7c2.4,1.5,4.6-2.3,2.2-3.8c-12.9-8-24.5-18.5-39.1-23.4
			C9.2,20.8,8.1,25,10.8,25.8L10.8,25.8z"/>
		<path class="st0" d="M48.5,11.7c0.8,14.3,0.3,28.6-1.7,42.7c-1.8,12.6-4.7,25-8.5,37.2c-1.9,5.9-4,11.8-6.4,17.5l3.6-1
			c-6.6-7.8-13.8-15.2-21.4-22v3.1c12.2-10,25.1-19.2,38.6-27.3c12.5-7.6,25.5-14.3,38.8-20.3c7-3.1,14-5.9,21.1-8.6
			c1.9-0.7,2.2-3.6,0-4.2c-7.1-1.9-14-4.3-20.7-7.2c-6.3-2.8-12-6.9-16.6-12.1c-0.9-0.8-2.3-0.8-3.1,0c-0.3,0.3-0.4,0.6-0.5,0.9
			c-3.5,12.1-6,24.5-7.3,37.1c-1.5,14.3-1.6,28.7-0.3,43c0.6,6.6,1.5,13.1,2.8,19.6c0.4,2.2,3.6,1.9,4.2,0
			c4.3-14.9,8.7-29.8,13-44.7l-3.6,1c9.7,12.5,19.3,25,29,37.5c0.8,0.8,2.2,0.8,3.1,0c0.8-0.9,0.8-2.2,0-3.1l-29-37.5
			c-1.1-1.4-3.2-0.5-3.6,1c-4.3,14.9-8.7,29.8-13,44.7h4.2c-4.8-25.9-4.7-52.6,0.3-78.5c1.2-6.4,2.8-12.7,4.6-18.9l-3.6,1
			c3.8,4.2,8.2,7.8,13.1,10.6c4.9,2.6,10.1,4.8,15.4,6.5c3.5,1.2,7.1,2.3,10.7,3.3v-4.2c-13.3,4.9-26.3,10.6-38.9,17
			c-13.7,7-26.9,14.9-39.5,23.6c-7.5,5.3-14.9,10.8-22,16.7c-0.8,0.9-0.8,2.2,0,3.1c7.6,6.8,14.8,14.2,21.4,22
			c1.2,1.4,3.1,0.4,3.6-1c4.4-10.7,8-21.8,10.8-33c3.3-13.4,5.3-27.1,6.1-40.8c0.4-8.2,0.4-16.5-0.1-24.7
			C52.7,8.9,48.4,8.9,48.5,11.7L48.5,11.7z"/>
		<rect x="2.5" y="2.5" class="st1" width="117.2" height="117.2"/>
	</g>
</g>
</svg>
